<svg xmlns="http://www.w3.org/2000/svg" xmlns:xlink="http://www.w3.org/1999/xlink" width="200" zoomAndPan="magnify" viewBox="0 0 150 67.499998" height="90" preserveAspectRatio="xMidYMid meet" version="1.0"><defs><g/><clipPath id="d2bf59e170"><path d="M 32.050781 5 L 90.847656 5 L 90.847656 61.945312 L 32.050781 61.945312 Z M 32.050781 5 " clip-rule="nonzero"/></clipPath><clipPath id="bf8858caf8"><path d="M 32.050781 5 L 90 5 L 90 61.945312 L 32.050781 61.945312 Z M 32.050781 5 " clip-rule="nonzero"/></clipPath></defs><path fill="#263151" d="M 47.617188 12.011719 C 47.191406 11.707031 46.742188 11.664062 46.265625 11.878906 C 46.058594 11.96875 45.84375 12.0625 45.625 12.160156 C 44.738281 12.546875 43.824219 12.945312 42.984375 13.5 C 42.019531 14.132812 41.183594 14.933594 40.441406 15.636719 C 40.078125 15.96875 39.953125 16.371094 40.070312 16.851562 C 40.199219 17.359375 40.519531 17.691406 41.023438 17.84375 C 41.507812 17.984375 41.929688 17.878906 42.289062 17.527344 L 42.34375 17.476562 C 43.097656 16.761719 43.816406 16.078125 44.652344 15.570312 C 45.34375 15.171875 46.0625 14.816406 46.804688 14.511719 C 47.027344 14.414062 47.25 14.316406 47.46875 14.21875 C 47.910156 14.035156 48.152344 13.710938 48.199219 13.238281 C 48.234375 12.722656 48.039062 12.3125 47.617188 12.011719 Z M 47.617188 12.011719 " fill-opacity="1" fill-rule="nonzero"/><path fill="#263151" d="M 36.484375 15.640625 C 36.953125 15.710938 37.328125 15.554688 37.609375 15.171875 C 38.863281 13.574219 40.34375 12.222656 42.046875 11.113281 C 43.75 10.007812 45.585938 9.203125 47.558594 8.703125 C 48.039062 8.589844 48.347656 8.296875 48.480469 7.820312 C 48.617188 7.3125 48.5 6.867188 48.132812 6.488281 C 47.785156 6.132812 47.367188 6.019531 46.882812 6.148438 C 44.660156 6.71875 42.582031 7.625 40.65625 8.871094 C 38.730469 10.117188 37.054688 11.636719 35.625 13.425781 C 35.296875 13.839844 35.230469 14.285156 35.429688 14.773438 C 35.617188 15.261719 35.96875 15.550781 36.484375 15.640625 Z M 36.484375 15.640625 " fill-opacity="1" fill-rule="nonzero"/><g clip-path="url(#d2bf59e170)"><path fill="#263151" d="M 87.882812 27.585938 C 88.023438 26.941406 88.199219 26.292969 88.371094 25.660156 L 88.40625 25.527344 C 89.152344 25.332031 89.75 24.917969 90.203125 24.292969 C 90.75 23.546875 90.820312 22.574219 90.394531 21.6875 C 90.359375 21.582031 90.308594 21.484375 90.25 21.394531 C 90.167969 21.273438 90.078125 21.15625 89.980469 21.050781 C 89.707031 20.726562 89.375 20.476562 88.988281 20.304688 C 88.882812 20.257812 88.773438 20.226562 88.660156 20.207031 C 88.210938 20.070312 87.757812 20.050781 87.296875 20.15625 C 86.839844 20.257812 86.4375 20.46875 86.089844 20.789062 C 85.421875 21.40625 85.113281 22.171875 85.15625 23.082031 C 85.183594 23.738281 85.421875 24.308594 85.867188 24.789062 L 85.832031 24.917969 C 85.730469 25.289062 85.628906 25.664062 85.53125 26.046875 L 85.433594 26.027344 C 84.996094 25.945312 84.558594 25.960938 84.125 26.074219 C 83.277344 24.1875 81.945312 22.363281 80.175781 20.644531 C 80.136719 20.601562 80.09375 20.5625 80.050781 20.523438 C 79.210938 19.722656 78.320312 18.984375 77.382812 18.300781 C 73.277344 15.3125 68.234375 13.582031 62.753906 13.277344 C 62.761719 12.992188 62.765625 12.699219 62.765625 12.40625 C 62.9375 12.339844 63.101562 12.269531 63.261719 12.183594 C 64.992188 11.253906 65.636719 8.929688 64.667969 7.109375 C 64.40625 6.628906 64.058594 6.21875 63.621094 5.886719 C 63.183594 5.554688 62.699219 5.328125 62.164062 5.207031 C 61.6875 5.09375 61.207031 5.085938 60.730469 5.183594 C 60.25 5.285156 59.8125 5.480469 59.421875 5.769531 L 59.382812 5.800781 C 59.027344 6.054688 58.726562 6.359375 58.472656 6.71875 C 58.21875 7.074219 58.03125 7.460938 57.910156 7.882812 C 57.785156 8.300781 57.734375 8.726562 57.757812 9.164062 C 57.777344 9.601562 57.871094 10.019531 58.035156 10.425781 C 58.222656 10.894531 58.496094 11.304688 58.859375 11.652344 C 59.222656 12.003906 59.644531 12.261719 60.121094 12.429688 C 60.125 12.710938 60.121094 12.996094 60.113281 13.285156 C 54.652344 13.597656 49.628906 15.328125 45.542969 18.304688 C 44.605469 18.988281 43.714844 19.726562 42.875 20.523438 C 42.828125 20.5625 42.78125 20.601562 42.734375 20.648438 C 40.964844 22.363281 39.640625 24.183594 38.800781 26.070312 C 38.65625 26.03125 38.511719 26.007812 38.367188 25.992188 C 38.035156 25.957031 37.710938 25.972656 37.386719 26.046875 C 37.289062 25.667969 37.1875 25.289062 37.085938 24.921875 L 37.050781 24.792969 C 37.496094 24.316406 37.730469 23.757812 37.757812 23.109375 C 37.804688 22.195312 37.5 21.421875 36.832031 20.792969 C 36.488281 20.46875 36.085938 20.257812 35.625 20.152344 C 35.160156 20.046875 34.707031 20.066406 34.253906 20.207031 C 34.140625 20.226562 34.035156 20.257812 33.929688 20.300781 C 33.539062 20.476562 33.203125 20.726562 32.925781 21.054688 C 32.832031 21.160156 32.742188 21.269531 32.664062 21.390625 C 32.601562 21.480469 32.554688 21.578125 32.519531 21.683594 C 32.09375 22.574219 32.160156 23.542969 32.710938 24.289062 C 33.160156 24.917969 33.761719 25.332031 34.507812 25.527344 L 34.542969 25.660156 C 34.71875 26.292969 34.894531 26.941406 35.03125 27.585938 C 34.984375 27.640625 34.9375 27.699219 34.890625 27.757812 C 33.105469 30.054688 32.648438 33.109375 32.582031 35.269531 C 32.53125 36.90625 32.726562 38.511719 33.160156 40.09375 C 33.636719 41.816406 34.25 43.726562 35.496094 44.59375 C 36.320312 45.175781 37.230469 45.371094 38.222656 45.175781 C 38.855469 47.554688 40.113281 50.035156 41.886719 52.402344 C 43.203125 54.171875 44.738281 55.726562 46.492188 57.070312 C 48.246094 58.410156 50.152344 59.488281 52.207031 60.296875 C 54.96875 61.367188 58.066406 61.925781 61.414062 61.945312 L 61.507812 61.945312 C 67.015625 61.914062 72.039062 60.332031 76.039062 57.375 C 79.292969 54.976562 81.78125 51.949219 83.507812 48.296875 C 83.988281 47.292969 84.378906 46.253906 84.683594 45.179688 C 85.226562 45.285156 85.765625 45.269531 86.304688 45.136719 C 88.105469 44.628906 88.765625 42.878906 89.296875 41.476562 L 89.34375 41.359375 C 89.933594 39.785156 90.257812 38.160156 90.324219 36.480469 C 90.460938 33.390625 89.808594 30.523438 88.480469 28.410156 C 88.300781 28.121094 88.101562 27.84375 87.882812 27.585938 Z M 87.882812 27.585938 " fill-opacity="1" fill-rule="nonzero"/></g><path fill="#263151" d="M 77.289062 12.160156 C 77.070312 12.066406 76.859375 11.972656 76.644531 11.875 C 76.476562 11.800781 76.300781 11.761719 76.117188 11.753906 C 75.933594 11.75 75.757812 11.78125 75.585938 11.847656 C 75.414062 11.914062 75.261719 12.011719 75.128906 12.140625 C 74.996094 12.265625 74.894531 12.414062 74.824219 12.582031 C 74.75 12.730469 74.710938 12.890625 74.703125 13.054688 C 74.695312 13.21875 74.722656 13.378906 74.78125 13.535156 C 74.839844 13.691406 74.925781 13.828125 75.039062 13.945312 C 75.15625 14.066406 75.289062 14.160156 75.441406 14.222656 L 76.109375 14.519531 C 76.847656 14.820312 77.5625 15.171875 78.257812 15.570312 C 79.089844 16.078125 79.804688 16.757812 80.566406 17.480469 L 80.621094 17.527344 C 80.871094 17.773438 81.171875 17.894531 81.523438 17.898438 C 81.910156 17.894531 82.234375 17.75 82.5 17.464844 C 82.621094 17.34375 82.714844 17.203125 82.78125 17.042969 C 82.847656 16.882812 82.875 16.71875 82.875 16.542969 C 82.871094 16.371094 82.832031 16.207031 82.761719 16.050781 C 82.691406 15.890625 82.59375 15.753906 82.464844 15.636719 C 81.722656 14.933594 80.882812 14.132812 79.921875 13.496094 C 79.085938 12.945312 78.171875 12.546875 77.289062 12.160156 Z M 77.289062 12.160156 " fill-opacity="1" fill-rule="nonzero"/><path fill="#263151" d="M 75.351562 8.703125 C 77.324219 9.203125 79.160156 10.007812 80.867188 11.113281 C 82.570312 12.222656 84.046875 13.574219 85.304688 15.171875 C 85.582031 15.554688 85.957031 15.710938 86.425781 15.640625 C 86.941406 15.550781 87.292969 15.261719 87.480469 14.773438 C 87.679688 14.285156 87.613281 13.839844 87.285156 13.425781 C 85.855469 11.636719 84.179688 10.117188 82.253906 8.871094 C 80.328125 7.625 78.253906 6.71875 76.03125 6.148438 C 75.546875 6.019531 75.128906 6.132812 74.777344 6.488281 C 74.410156 6.867188 74.292969 7.3125 74.429688 7.820312 C 74.5625 8.296875 74.871094 8.589844 75.351562 8.703125 Z M 75.351562 8.703125 " fill-opacity="1" fill-rule="nonzero"/><path fill="#ffffff" d="M 83.566406 40.050781 C 83.238281 38.019531 83.011719 36 83.054688 33.9375 C 83.089844 32.058594 83.53125 30.191406 83.523438 28.320312 C 83.515625 25.539062 81.679688 23.273438 79.40625 21.855469 C 79.375 21.835938 79.347656 21.839844 79.320312 21.863281 L 78.65625 20.992188 C 78.707031 20.949219 78.695312 20.851562 78.613281 20.859375 C 77.496094 21 76.679688 21.667969 75.929688 22.464844 C 74.84375 23.613281 73.84375 24.855469 72.871094 26.101562 C 70.972656 28.542969 69.230469 31.097656 67.527344 33.675781 C 66.042969 35.929688 63.832031 38.472656 63.855469 41.316406 C 63.875 43.238281 64.746094 45.105469 65.785156 46.804688 C 64.386719 46.902344 62.980469 47.113281 61.59375 47.210938 C 61.511719 47.210938 61.433594 47.203125 61.355469 47.199219 C 60.210938 47.109375 59.074219 46.949219 57.933594 46.84375 C 57.730469 46.824219 57.527344 46.808594 57.324219 46.792969 C 57.976562 45.707031 58.5 44.5625 58.886719 43.355469 C 59.234375 42.273438 59.28125 41.171875 59.027344 40.0625 C 59.015625 40.023438 59.003906 39.980469 58.996094 39.9375 L 58.964844 39.8125 C 58.953125 39.769531 58.941406 39.726562 58.929688 39.683594 C 58.554688 38.355469 57.8125 37.113281 56.980469 35.839844 C 54.996094 32.792969 52.996094 29.746094 50.792969 26.847656 C 49.78125 25.515625 48.730469 24.21875 47.621094 22.96875 C 46.75 21.992188 45.832031 21.023438 44.472656 20.855469 C 44.394531 20.847656 44.382812 20.945312 44.429688 20.988281 L 43.765625 21.859375 C 43.742188 21.835938 43.714844 21.832031 43.683594 21.851562 C 41.695312 23.089844 39.96875 25.003906 39.628906 27.398438 C 39.410156 28.933594 39.808594 30.492188 39.9375 32.023438 C 40.082031 33.679688 40.082031 35.335938 39.9375 36.992188 C 39.796875 38.679688 39.375 40.335938 39.277344 42.023438 C 39.195312 43.46875 39.515625 44.835938 40 46.1875 C 40.679688 48.050781 41.59375 49.785156 42.746094 51.398438 C 43.902344 53.011719 45.25 54.441406 46.796875 55.6875 C 47.253906 56.058594 47.734375 56.40625 48.226562 56.738281 C 48.445312 56.886719 48.78125 57.203125 49.089844 57.140625 C 49.101562 57.140625 49.117188 57.136719 49.128906 57.132812 C 49.410156 57.390625 49.828125 57.527344 50.171875 57.703125 C 51.097656 58.167969 52.035156 58.621094 52.992188 59.019531 C 54.75 59.769531 56.582031 60.265625 58.476562 60.511719 C 59.511719 60.636719 60.550781 60.679688 61.589844 60.640625 C 62.058594 60.65625 62.523438 60.65625 62.988281 60.640625 C 65.210938 60.550781 67.359375 60.101562 69.433594 59.292969 C 70.460938 58.894531 71.460938 58.433594 72.449219 57.945312 C 72.925781 57.707031 73.664062 57.503906 74.046875 57.070312 C 74.234375 57.089844 74.453125 57.019531 74.753906 56.824219 C 75.828125 56.117188 76.824219 55.316406 77.746094 54.421875 C 79.683594 52.554688 81.222656 50.402344 82.367188 47.96875 C 82.921875 46.777344 83.410156 45.523438 83.679688 44.238281 C 83.945312 42.84375 83.789062 41.449219 83.566406 40.050781 Z M 76.132812 55.722656 C 75.785156 56.035156 75.40625 56.3125 75.003906 56.554688 C 75.390625 56.292969 75.765625 56.015625 76.132812 55.722656 Z M 49.78125 57.429688 L 50.398438 57.742188 C 50.191406 57.644531 49.976562 57.539062 49.785156 57.429688 Z M 49.78125 57.429688 " fill-opacity="1" fill-rule="nonzero"/><path fill="#415584" d="M 39.867188 34.445312 C 39.824219 33.117188 39.785156 31.789062 39.746094 30.460938 C 39.710938 29.292969 39.570312 27.933594 38.574219 27.3125 L 38.839844 27.253906 C 37.40625 27.378906 36.179688 28.390625 35.457031 29.621094 C 34.730469 30.851562 34.441406 32.285156 34.242188 33.695312 C 33.957031 35.6875 33.839844 37.753906 34.429688 39.675781 C 34.660156 40.367188 34.9375 41.035156 35.265625 41.683594 C 35.703125 42.59375 36.332031 43.609375 37.335938 43.695312 C 38.035156 43.753906 38.699219 43.308594 39.078125 42.722656 C 39.457031 42.140625 39.605469 41.433594 39.703125 40.746094 C 39.992188 38.664062 39.929688 36.546875 39.867188 34.445312 Z M 39.867188 34.445312 " fill-opacity="1" fill-rule="nonzero"/><path fill="#415584" d="M 88.570312 33.695312 C 88.367188 32.285156 88.078125 30.851562 87.351562 29.621094 C 86.628906 28.390625 85.394531 27.378906 83.972656 27.253906 L 84.234375 27.3125 C 83.238281 27.933594 83.097656 29.292969 83.0625 30.460938 C 83.023438 31.789062 82.984375 33.117188 82.941406 34.445312 C 82.878906 36.546875 82.816406 38.664062 83.113281 40.746094 C 83.210938 41.4375 83.351562 42.140625 83.738281 42.726562 C 84.121094 43.308594 84.78125 43.753906 85.476562 43.695312 C 86.484375 43.613281 87.113281 42.597656 87.550781 41.6875 C 87.878906 41.039062 88.15625 40.371094 88.386719 39.679688 C 88.96875 37.753906 88.851562 35.683594 88.570312 33.695312 Z M 88.570312 33.695312 " fill-opacity="1" fill-rule="nonzero"/><path fill="#ff6724" d="M 36.484375 22.527344 C 36.253906 21.777344 35.480469 21.378906 34.734375 21.503906 C 34.625 21.515625 34.550781 21.574219 34.523438 21.679688 L 34.5 21.679688 C 33.539062 21.59375 33.515625 22.789062 33.757812 23.421875 C 34.039062 24.15625 34.792969 24.601562 35.566406 24.308594 C 36.253906 24.042969 36.707031 23.242188 36.484375 22.527344 Z M 36.484375 22.527344 " fill-opacity="1" fill-rule="nonzero"/><path fill="#ff6724" d="M 89.3125 22.527344 C 89.082031 21.777344 88.3125 21.378906 87.566406 21.503906 C 87.453125 21.515625 87.382812 21.574219 87.351562 21.679688 L 87.328125 21.679688 C 86.367188 21.59375 86.34375 22.789062 86.589844 23.421875 C 86.871094 24.15625 87.625 24.601562 88.394531 24.308594 C 89.085938 24.042969 89.539062 23.242188 89.3125 22.527344 Z M 89.3125 22.527344 " fill-opacity="1" fill-rule="nonzero"/><path fill="#ff6724" d="M 61.21875 6.304688 C 61.199219 6.097656 60.992188 5.910156 60.777344 6.066406 C 59.703125 6.820312 59.027344 8.074219 59.203125 9.40625 C 59.238281 9.714844 59.332031 10 59.496094 10.261719 C 59.65625 10.527344 59.863281 10.746094 60.121094 10.917969 C 60.378906 11.089844 60.660156 11.199219 60.964844 11.246094 C 61.269531 11.292969 61.570312 11.277344 61.871094 11.191406 C 64.546875 10.476562 64.175781 5.878906 61.21875 6.304688 Z M 61.21875 6.304688 " fill-opacity="1" fill-rule="nonzero"/><path fill="#b3b3b3" d="M 49.457031 48.632812 C 48.027344 50.554688 46.625 52.507812 45.882812 54.816406 C 45.761719 55.191406 46.351562 55.351562 46.46875 54.980469 C 47.195312 52.71875 48.582031 50.816406 49.984375 48.9375 C 50.21875 48.625 49.6875 48.320312 49.457031 48.632812 Z M 49.457031 48.632812 " fill-opacity="1" fill-rule="nonzero"/><path fill="#b3b3b3" d="M 40.050781 33.785156 C 40.476562 33.027344 40.90625 32.273438 41.347656 31.527344 C 41.609375 31.082031 41.738281 30.722656 42.28125 30.589844 C 42.730469 30.484375 43.25 30.492188 43.710938 30.445312 C 44.097656 30.402344 44.101562 29.792969 43.710938 29.835938 C 42.984375 29.910156 41.804688 29.761719 41.3125 30.402344 C 40.609375 31.324219 40.089844 32.46875 39.523438 33.480469 C 39.335938 33.820312 39.863281 34.128906 40.050781 33.785156 Z M 40.050781 33.785156 " fill-opacity="1" fill-rule="nonzero"/><path fill="#b3b3b3" d="M 42.050781 46.710938 C 42.617188 46.332031 43.175781 45.90625 43.800781 45.625 C 44.515625 45.304688 45.246094 45.335938 46.015625 45.40625 C 46.40625 45.441406 46.40625 44.835938 46.015625 44.796875 C 44.324219 44.644531 43.332031 45.136719 42.007812 46.007812 C 41.144531 44.421875 40.597656 42.730469 40.367188 40.9375 C 40.320312 40.554688 39.710938 40.550781 39.757812 40.9375 C 40.007812 42.949219 40.632812 44.835938 41.632812 46.601562 C 41.675781 46.675781 41.738281 46.71875 41.820312 46.742188 C 41.902344 46.761719 41.980469 46.753906 42.050781 46.710938 Z M 42.050781 46.710938 " fill-opacity="1" fill-rule="nonzero"/><path fill="#b3b3b3" d="M 73.402344 48.632812 C 73.167969 48.320312 72.640625 48.621094 72.875 48.9375 C 74.277344 50.820312 75.664062 52.722656 76.386719 54.980469 C 76.507812 55.351562 77.097656 55.191406 76.976562 54.816406 C 76.242188 52.507812 74.835938 50.554688 73.402344 48.632812 Z M 73.402344 48.632812 " fill-opacity="1" fill-rule="nonzero"/><path fill="#b3b3b3" d="M 83.332031 33.476562 C 82.769531 32.464844 82.25 31.324219 81.542969 30.402344 C 81.058594 29.761719 79.867188 29.90625 79.144531 29.832031 C 78.753906 29.792969 78.757812 30.402344 79.144531 30.441406 C 79.570312 30.484375 80.011719 30.496094 80.429688 30.574219 C 81.074219 30.695312 81.199219 31 81.503906 31.527344 C 81.945312 32.273438 82.375 33.027344 82.796875 33.785156 C 82.996094 34.128906 83.523438 33.820312 83.332031 33.476562 Z M 83.332031 33.476562 " fill-opacity="1" fill-rule="nonzero"/><path fill="#b3b3b3" d="M 82.488281 40.9375 C 82.261719 42.730469 81.714844 44.421875 80.851562 46.007812 C 79.523438 45.136719 78.53125 44.644531 76.84375 44.796875 C 76.453125 44.835938 76.449219 45.441406 76.84375 45.40625 C 77.609375 45.335938 78.335938 45.304688 79.054688 45.625 C 79.683594 45.90625 80.242188 46.332031 80.804688 46.710938 C 80.878906 46.753906 80.957031 46.761719 81.039062 46.742188 C 81.121094 46.722656 81.179688 46.675781 81.222656 46.601562 C 82.226562 44.835938 82.851562 42.949219 83.097656 40.9375 C 83.148438 40.550781 82.539062 40.558594 82.488281 40.9375 Z M 82.488281 40.9375 " fill-opacity="1" fill-rule="nonzero"/><path fill="#b3b3b3" d="M 65.269531 56.378906 C 65.210938 56.195312 65.085938 56.125 64.894531 56.164062 C 63.785156 56.316406 62.671875 56.339844 61.558594 56.234375 C 61.519531 56.222656 61.476562 56.21875 61.4375 56.222656 L 61.417969 56.222656 C 61.378906 56.21875 61.339844 56.222656 61.300781 56.234375 C 60.183594 56.339844 59.070312 56.316406 57.960938 56.164062 C 57.878906 56.148438 57.804688 56.160156 57.730469 56.199219 C 57.660156 56.242188 57.609375 56.300781 57.585938 56.378906 L 56.285156 59.460938 C 56.132812 59.816406 56.722656 59.976562 56.875 59.621094 L 58.066406 56.785156 C 59.1875 56.929688 60.304688 56.941406 61.429688 56.832031 C 62.550781 56.941406 63.675781 56.925781 64.792969 56.785156 C 65.191406 57.730469 65.589844 58.675781 65.988281 59.617188 C 66.136719 59.972656 66.726562 59.816406 66.574219 59.457031 Z M 65.269531 56.378906 " fill-opacity="1" fill-rule="nonzero"/><path fill="#b3b3b3" d="M 82.433594 47.265625 C 82.15625 47.46875 81.636719 48.027344 81.304688 48.097656 C 80.796875 48.199219 80.40625 47.730469 80.023438 47.453125 C 79.976562 47.429688 79.945312 47.441406 79.917969 47.480469 C 78.949219 49.085938 77.910156 50.640625 76.328125 51.714844 C 76.28125 51.742188 76.273438 51.777344 76.300781 51.820312 C 76.828125 52.523438 77.210938 53.296875 77.445312 54.144531 C 77.457031 54.175781 77.476562 54.191406 77.507812 54.199219 C 77.539062 54.203125 77.5625 54.191406 77.582031 54.167969 L 77.625 54.199219 C 77.589844 54.242188 77.59375 54.277344 77.632812 54.308594 C 77.675781 54.34375 77.710938 54.339844 77.742188 54.300781 C 78.796875 53.289062 79.722656 52.171875 80.519531 50.949219 C 81.246094 49.828125 82.132812 48.625 82.546875 47.351562 C 82.5625 47.292969 82.488281 47.21875 82.433594 47.265625 Z M 82.433594 47.265625 " fill-opacity="1" fill-rule="nonzero"/><path fill="#b3b3b3" d="M 80.980469 28.769531 C 81.1875 28.964844 81.550781 29.042969 81.800781 29.1875 C 82.203125 29.433594 82.566406 29.722656 82.886719 30.066406 C 82.910156 30.085938 82.933594 30.09375 82.960938 30.085938 C 82.988281 30.078125 83.007812 30.058594 83.015625 30.03125 C 83.171875 29.070312 83.515625 28.058594 83.121094 27.121094 C 82.601562 25.890625 81.769531 24.742188 80.960938 23.683594 C 80.929688 23.636719 80.890625 23.628906 80.84375 23.667969 L 80.621094 23.40625 C 80.621094 23.375 80.621094 23.339844 80.617188 23.308594 C 80.609375 23.210938 80.457031 23.210938 80.464844 23.308594 C 80.566406 24.953125 80.582031 26.632812 80.777344 28.269531 C 80.816406 28.550781 80.792969 28.597656 80.980469 28.769531 Z M 80.980469 28.769531 " fill-opacity="1" fill-rule="nonzero"/><path fill="#b3b3b3" d="M 46.59375 51.714844 C 45.015625 50.644531 43.972656 49.085938 43.003906 47.480469 C 42.980469 47.4375 42.945312 47.425781 42.898438 47.453125 C 42.515625 47.730469 42.125 48.195312 41.617188 48.09375 C 41.285156 48.027344 40.765625 47.46875 40.488281 47.261719 C 40.433594 47.222656 40.355469 47.289062 40.375 47.347656 C 40.796875 48.625 41.675781 49.824219 42.402344 50.945312 C 43.199219 52.167969 44.125 53.285156 45.179688 54.296875 C 45.210938 54.335938 45.25 54.339844 45.289062 54.308594 C 45.328125 54.273438 45.332031 54.238281 45.300781 54.199219 L 45.34375 54.167969 C 45.359375 54.191406 45.386719 54.199219 45.417969 54.195312 C 45.445312 54.191406 45.46875 54.171875 45.476562 54.144531 C 45.714844 53.296875 46.097656 52.519531 46.625 51.816406 C 46.648438 51.773438 46.636719 51.742188 46.59375 51.714844 Z M 46.59375 51.714844 " fill-opacity="1" fill-rule="nonzero"/><path fill="#b3b3b3" d="M 40.035156 30.066406 C 40.320312 29.761719 40.640625 29.496094 40.988281 29.269531 C 41.234375 29.113281 41.613281 29.03125 41.835938 28.84375 C 42.125 28.605469 42.089844 28.671875 42.136719 28.269531 C 42.328125 26.628906 42.347656 24.953125 42.453125 23.308594 C 42.460938 23.210938 42.308594 23.210938 42.300781 23.308594 C 42.300781 23.339844 42.300781 23.375 42.300781 23.40625 L 42.074219 23.667969 C 42.027344 23.632812 41.988281 23.640625 41.953125 23.6875 C 41.152344 24.738281 40.320312 25.890625 39.800781 27.117188 C 39.40625 28.054688 39.75 29.066406 39.90625 30.027344 C 39.914062 30.058594 39.929688 30.074219 39.960938 30.082031 C 39.988281 30.09375 40.011719 30.085938 40.035156 30.066406 Z M 40.035156 30.066406 " fill-opacity="1" fill-rule="nonzero"/><path fill="#415584" d="M 61.519531 14.289062 L 61.519531 14.269531 L 61.429688 14.277344 L 61.335938 14.273438 L 61.335938 14.292969 C 59.859375 14.460938 49.492188 15.867188 43.644531 22.003906 L 44.257812 38.613281 C 44.257812 38.613281 44.390625 46.625 46.015625 48.183594 C 47.644531 49.738281 56.203125 51.988281 61.316406 52.039062 L 61.542969 52.039062 C 66.652344 51.988281 75.230469 49.722656 76.839844 48.183594 C 78.449219 46.644531 78.597656 38.613281 78.597656 38.613281 L 79.214844 22.003906 C 73.363281 15.867188 63 14.460938 61.519531 14.289062 Z M 61.519531 14.289062 " fill-opacity="1" fill-rule="nonzero"/><path fill="#263151" d="M 76.433594 28.09375 C 76.425781 27.730469 76.371094 27.371094 76.273438 27.023438 C 76.015625 26.253906 75.332031 25.691406 74.582031 25.386719 C 73.835938 25.078125 73.015625 24.992188 72.210938 24.910156 C 71.96875 24.863281 71.726562 24.875 71.488281 24.941406 C 71.070312 25.089844 70.851562 25.535156 70.671875 25.945312 C 69.859375 27.785156 68.984375 29.625 67.703125 31.179688 C 66.425781 32.730469 64.691406 33.992188 62.707031 34.34375 C 62.265625 34.417969 60.589844 34.417969 60.148438 34.34375 C 58.164062 33.992188 56.429688 32.730469 55.152344 31.179688 C 53.871094 29.625 52.996094 27.785156 52.183594 25.945312 C 52.007812 25.539062 51.789062 25.089844 51.371094 24.941406 C 51.128906 24.875 50.890625 24.863281 50.644531 24.910156 C 49.839844 24.992188 49.023438 25.078125 48.273438 25.386719 C 47.523438 25.691406 46.84375 26.253906 46.585938 27.023438 C 46.484375 27.371094 46.429688 27.730469 46.425781 28.09375 C 46.148438 32.914062 46.238281 37.726562 46.703125 42.53125 C 46.8125 43.671875 46.953125 44.839844 47.46875 45.867188 C 47.984375 46.890625 48.960938 47.761719 50.109375 47.839844 C 50.859375 48.003906 57.566406 49.71875 59.976562 49.777344 C 60.46875 49.789062 62.386719 49.789062 62.878906 49.777344 C 65.289062 49.71875 71.996094 48.003906 72.746094 47.839844 C 73.894531 47.761719 74.871094 46.886719 75.386719 45.867188 C 75.90625 44.847656 76.042969 43.671875 76.152344 42.53125 C 76.617188 37.726562 76.710938 32.914062 76.433594 28.09375 Z M 76.433594 28.09375 " fill-opacity="1" fill-rule="nonzero"/><path fill="#263151" d="M 87.261719 41.738281 C 87.214844 41.769531 87.171875 41.800781 87.128906 41.832031 C 86.714844 41.957031 86.539062 41.828125 86.597656 41.445312 C 86.578125 41.265625 86.574219 41.085938 86.578125 40.90625 C 86.601562 40.703125 86.621094 40.496094 86.632812 40.292969 L 86.632812 40.28125 C 86.765625 38.300781 86.507812 36.308594 86.03125 34.355469 C 86.019531 34.320312 85.996094 34.300781 85.957031 34.300781 C 85.921875 34.300781 85.894531 34.320312 85.886719 34.355469 C 85.707031 35.339844 85.496094 36.316406 85.234375 37.285156 C 85.222656 37.324219 85.210938 37.371094 85.203125 37.417969 C 85.050781 37.621094 84.859375 37.6875 84.605469 37.332031 C 84.527344 37.207031 84.484375 37.066406 84.46875 36.917969 C 84.457031 36.765625 84.449219 36.609375 84.441406 36.457031 C 84.441406 36.320312 84.433594 36.183594 84.417969 36.050781 C 84.414062 35.945312 84.40625 35.84375 84.394531 35.75 C 84.246094 34.289062 84.121094 32.828125 83.917969 31.375 C 83.847656 30.25 83.933594 29.140625 84.183594 28.039062 C 84.207031 27.945312 84.0625 27.902344 84.035156 28 C 83.984375 28.21875 83.9375 28.441406 83.902344 28.660156 L 83.816406 28.917969 C 83.765625 28.894531 83.734375 28.914062 83.722656 28.96875 C 83.667969 29.1875 83.621094 29.410156 83.585938 29.640625 C 83.527344 29.625 83.492188 29.648438 83.484375 29.710938 C 83.089844 33.851562 83.105469 37.992188 83.539062 42.128906 C 83.65625 43.1875 83.984375 43.839844 85.136719 43.816406 C 85.476562 43.808594 85.671875 43.816406 85.875 43.539062 C 85.914062 43.484375 85.945312 43.421875 85.972656 43.359375 C 85.988281 43.382812 86.011719 43.402344 86.039062 43.417969 C 86.242188 43.519531 86.582031 43.109375 86.695312 42.996094 C 87.023438 42.671875 87.363281 42.28125 87.375 41.804688 C 87.375 41.777344 87.363281 41.753906 87.339844 41.742188 C 87.3125 41.726562 87.289062 41.726562 87.261719 41.738281 Z M 87.261719 41.738281 " fill-opacity="1" fill-rule="nonzero"/><path fill="#263151" d="M 39.515625 29.707031 C 39.507812 29.648438 39.472656 29.625 39.414062 29.636719 C 39.375 29.40625 39.332031 29.183594 39.277344 28.964844 C 39.265625 28.910156 39.234375 28.894531 39.183594 28.917969 L 39.097656 28.65625 C 39.0625 28.4375 39.019531 28.21875 38.964844 27.996094 C 38.941406 27.902344 38.792969 27.941406 38.816406 28.039062 C 39.066406 29.136719 39.152344 30.246094 39.082031 31.367188 C 38.875 32.820312 38.75 34.28125 38.605469 35.742188 C 38.550781 36.253906 38.492188 36.765625 38.425781 37.277344 C 38.414062 37.292969 38.40625 37.3125 38.394531 37.328125 C 38.15625 37.675781 37.964844 37.621094 37.8125 37.429688 C 37.53125 36.414062 37.308594 35.386719 37.121094 34.351562 C 37.109375 34.316406 37.082031 34.296875 37.046875 34.296875 C 37.007812 34.296875 36.984375 34.316406 36.972656 34.351562 C 36.496094 36.304688 36.242188 38.292969 36.375 40.273438 L 36.375 40.28125 C 36.390625 40.488281 36.40625 40.691406 36.429688 40.898438 C 36.4375 41.078125 36.429688 41.257812 36.414062 41.433594 C 36.46875 41.816406 36.292969 41.945312 35.882812 41.824219 C 35.839844 41.789062 35.792969 41.757812 35.746094 41.730469 C 35.722656 41.710938 35.695312 41.710938 35.667969 41.726562 C 35.640625 41.742188 35.625 41.765625 35.628906 41.796875 C 35.636719 42.242188 35.941406 42.601562 36.242188 42.914062 C 36.351562 43.03125 36.746094 43.515625 36.96875 43.40625 C 36.992188 43.390625 37.015625 43.371094 37.035156 43.347656 C 37.058594 43.414062 37.089844 43.476562 37.132812 43.53125 C 37.335938 43.808594 37.53125 43.804688 37.871094 43.8125 C 39.019531 43.835938 39.355469 43.179688 39.46875 42.121094 C 39.898438 37.984375 39.914062 33.847656 39.515625 29.707031 Z M 39.515625 29.707031 " fill-opacity="1" fill-rule="nonzero"/><path fill="#263151" d="M 51.359375 22.957031 C 51.300781 22.597656 51.269531 21.648438 50.90625 21.449219 C 50.570312 21.261719 49.335938 21.890625 49.003906 22.003906 C 48.308594 22.242188 47.214844 22.453125 46.636719 22.902344 C 46.242188 23.210938 46.320312 23.6875 46.363281 24.167969 C 46.347656 24.296875 46.351562 24.429688 46.378906 24.558594 C 46.390625 24.59375 46.414062 24.613281 46.453125 24.613281 C 47.152344 24.683594 48.046875 24 48.71875 23.824219 C 49.605469 23.585938 50.492188 23.433594 51.328125 23.042969 C 51.359375 23.019531 51.371094 22.992188 51.359375 22.957031 Z M 51.359375 22.957031 " fill-opacity="1" fill-rule="nonzero"/><path fill="#263151" d="M 46.402344 22.214844 C 46.816406 21.996094 47.246094 21.808594 47.691406 21.660156 L 48.375 21.4375 C 49.171875 21.199219 49.988281 21 50.730469 20.765625 C 50.78125 20.75 50.796875 20.71875 50.785156 20.671875 C 50.671875 20.371094 50.53125 20.085938 50.367188 19.808594 C 50.34375 19.769531 50.308594 19.757812 50.265625 19.78125 C 49.144531 20.289062 48.023438 20.796875 46.914062 21.335938 C 46.578125 21.5 46.09375 21.664062 46.328125 22.082031 C 46.238281 22.132812 46.3125 22.265625 46.402344 22.214844 Z M 46.402344 22.214844 " fill-opacity="1" fill-rule="nonzero"/><path fill="#263151" d="M 76.574219 22.972656 C 76.355469 22.753906 75.898438 22.671875 75.621094 22.566406 C 75.117188 22.367188 74.613281 22.183594 74.101562 22.007812 C 73.75 21.886719 72.554688 21.265625 72.210938 21.449219 C 71.835938 21.640625 71.804688 22.621094 71.746094 22.957031 C 71.738281 22.996094 71.75 23.023438 71.78125 23.042969 C 72.617188 23.4375 73.503906 23.59375 74.390625 23.824219 C 75.066406 24.003906 75.949219 24.6875 76.65625 24.617188 C 76.695312 24.617188 76.71875 24.597656 76.730469 24.5625 C 76.757812 24.433594 76.761719 24.304688 76.746094 24.175781 C 76.785156 23.753906 76.855469 23.257812 76.574219 22.972656 Z M 76.574219 22.972656 " fill-opacity="1" fill-rule="nonzero"/><path fill="#263151" d="M 76.785156 22.085938 C 77.023438 21.667969 76.535156 21.5 76.199219 21.335938 C 75.089844 20.804688 73.96875 20.292969 72.851562 19.785156 C 72.804688 19.761719 72.773438 19.769531 72.746094 19.8125 C 72.582031 20.085938 72.441406 20.375 72.328125 20.671875 C 72.316406 20.722656 72.335938 20.753906 72.382812 20.765625 C 73.125 21.003906 73.941406 21.203125 74.738281 21.441406 L 75.421875 21.660156 C 75.867188 21.8125 76.296875 21.996094 76.710938 22.21875 C 76.796875 22.265625 76.871094 22.132812 76.785156 22.085938 Z M 76.785156 22.085938 " fill-opacity="1" fill-rule="nonzero"/><path fill="#ffffff" d="M 37.378906 27.425781 C 33.875 29.582031 32.917969 33.847656 33.921875 37.644531 C 33.953125 37.777344 34.035156 37.835938 34.171875 37.816406 C 34.15625 38.109375 34.148438 38.398438 34.152344 38.691406 C 34.152344 39.011719 34.652344 39.011719 34.652344 38.691406 C 34.628906 36.523438 35.066406 34.457031 35.964844 32.484375 C 36.335938 31.675781 36.847656 30.9375 37.226562 30.136719 C 37.605469 29.332031 37.730469 28.511719 37.75 27.636719 C 37.746094 27.542969 37.703125 27.476562 37.621094 27.429688 C 37.542969 27.382812 37.460938 27.382812 37.378906 27.425781 Z M 37.378906 27.425781 " fill-opacity="1" fill-rule="nonzero"/><path fill="#ffffff" d="M 85.585938 27.425781 C 85.546875 27.402344 85.503906 27.394531 85.460938 27.394531 C 85.414062 27.394531 85.375 27.40625 85.335938 27.425781 C 85.296875 27.449219 85.265625 27.480469 85.242188 27.515625 C 85.222656 27.554688 85.210938 27.597656 85.207031 27.640625 C 85.226562 28.511719 85.359375 29.339844 85.734375 30.140625 C 86.105469 30.9375 86.621094 31.679688 86.996094 32.488281 C 87.894531 34.460938 88.332031 36.527344 88.308594 38.691406 C 88.308594 39.015625 88.804688 39.015625 88.808594 38.691406 C 88.808594 38.402344 88.800781 38.113281 88.789062 37.820312 C 88.921875 37.839844 89.007812 37.78125 89.039062 37.648438 C 90.046875 33.851562 89.089844 29.582031 85.585938 27.425781 Z M 85.585938 27.425781 " fill-opacity="1" fill-rule="nonzero"/><path fill="#ffffff" d="M 51.933594 17.804688 C 51.644531 17.144531 51.441406 16.296875 50.566406 16.601562 C 49.511719 16.957031 48.476562 17.617188 47.535156 18.195312 C 45.925781 19.1875 43.496094 20.457031 43.515625 22.605469 C 43.515625 22.675781 43.539062 22.734375 43.59375 22.78125 C 43.644531 22.828125 43.707031 22.847656 43.773438 22.84375 C 43.738281 22.886719 43.699219 22.933594 43.65625 22.980469 C 43.453125 23.226562 43.804688 23.582031 44.015625 23.335938 C 44.996094 22.113281 46.148438 21.085938 47.472656 20.246094 C 48.835938 19.386719 50.367188 18.792969 51.84375 18.144531 C 51.976562 18.085938 51.980469 17.917969 51.933594 17.804688 Z M 51.933594 17.804688 " fill-opacity="1" fill-rule="nonzero"/><path fill="#ffffff" d="M 79.488281 22.597656 C 79.507812 20.445312 77.078125 19.183594 75.46875 18.191406 C 74.523438 17.613281 73.492188 16.957031 72.4375 16.59375 C 71.566406 16.292969 71.367188 17.136719 71.070312 17.800781 C 71.023438 17.910156 71.027344 18.082031 71.160156 18.140625 C 72.636719 18.792969 74.167969 19.378906 75.535156 20.242188 C 76.859375 21.082031 78.011719 22.113281 78.996094 23.332031 C 79.195312 23.582031 79.546875 23.226562 79.351562 22.976562 L 79.234375 22.839844 C 79.300781 22.84375 79.363281 22.820312 79.414062 22.773438 C 79.464844 22.726562 79.488281 22.667969 79.488281 22.597656 Z M 79.488281 22.597656 " fill-opacity="1" fill-rule="nonzero"/><path fill="#ffffff" d="M 71.234375 16.265625 C 68.589844 15.589844 65.914062 15.09375 63.203125 14.78125 C 63.167969 14.691406 63.105469 14.617188 63.023438 14.566406 C 62.890625 14.507812 62.75 14.488281 62.605469 14.511719 C 62.214844 14.539062 61.828125 14.570312 61.4375 14.605469 C 61.046875 14.570312 60.65625 14.539062 60.269531 14.511719 C 60.125 14.488281 59.984375 14.507812 59.851562 14.566406 C 59.769531 14.617188 59.707031 14.691406 59.671875 14.78125 C 56.960938 15.09375 54.285156 15.589844 51.640625 16.265625 L 51.257812 16.371094 C 51.75 18.28125 52.890625 19.957031 53.640625 21.785156 C 54.261719 23.300781 54.605469 24.914062 55.09375 26.476562 C 55.578125 28.039062 56.234375 29.59375 57.359375 30.789062 C 58.160156 31.628906 59.113281 32.230469 60.21875 32.589844 C 60.59375 32.714844 60.972656 32.800781 61.363281 32.855469 C 61.382812 32.863281 61.402344 32.863281 61.425781 32.855469 C 61.855469 32.800781 62.277344 32.707031 62.695312 32.578125 C 63.785156 32.21875 64.726562 31.625 65.515625 30.792969 C 66.640625 29.605469 67.296875 28.046875 67.78125 26.484375 C 68.269531 24.917969 68.617188 23.308594 69.234375 21.792969 C 69.980469 19.964844 71.121094 18.289062 71.617188 16.375 Z M 71.234375 16.265625 " fill-opacity="1" fill-rule="nonzero"/><path fill="#263151" d="M 46.5625 12.523438 C 45.488281 13.007812 44.367188 13.441406 43.378906 14.089844 C 42.488281 14.6875 41.710938 15.417969 40.933594 16.152344 C 40.363281 16.695312 41.226562 17.554688 41.796875 17.011719 C 42.574219 16.273438 43.359375 15.523438 44.285156 14.964844 C 45.214844 14.402344 46.207031 14.011719 47.179688 13.574219 C 47.890625 13.253906 47.273438 12.203125 46.5625 12.523438 Z M 46.5625 12.523438 " fill-opacity="1" fill-rule="nonzero"/><path fill="#263151" d="M 37.050781 14.730469 C 38.355469 13.074219 39.890625 11.671875 41.660156 10.519531 C 43.429688 9.371094 45.339844 8.535156 47.386719 8.011719 C 48.148438 7.820312 47.824219 6.644531 47.0625 6.839844 C 44.910156 7.382812 42.90625 8.257812 41.042969 9.460938 C 39.183594 10.664062 37.5625 12.132812 36.1875 13.867188 C 35.699219 14.476562 36.5625 15.34375 37.050781 14.730469 Z M 37.050781 14.730469 " fill-opacity="1" fill-rule="nonzero"/><g clip-path="url(#bf8858caf8)"><path fill="#263151" d="M 89.625 23.875 C 90.054688 23.289062 90.03125 22.554688 89.730469 21.953125 C 89.714844 21.894531 89.6875 21.835938 89.652344 21.785156 C 89.589844 21.6875 89.519531 21.601562 89.441406 21.515625 C 89.238281 21.273438 88.992188 21.085938 88.703125 20.953125 C 88.636719 20.925781 88.574219 20.910156 88.503906 20.902344 C 88.167969 20.789062 87.828125 20.769531 87.480469 20.84375 C 87.132812 20.917969 86.828125 21.074219 86.570312 21.316406 C 85.644531 22.148438 85.601562 23.753906 86.625 24.515625 C 86.640625 24.527344 86.65625 24.535156 86.667969 24.546875 C 86.453125 25.351562 86.222656 26.160156 86.042969 26.976562 C 85.808594 26.859375 85.5625 26.773438 85.304688 26.726562 C 84.746094 26.613281 84.222656 26.707031 83.734375 27.007812 C 82.882812 24.789062 81.394531 22.8125 79.65625 21.136719 C 79.628906 21.105469 79.601562 21.078125 79.574219 21.054688 C 78.746094 20.269531 77.871094 19.542969 76.949219 18.875 C 72.613281 15.707031 67.347656 14.128906 62.007812 13.957031 C 62.054688 13.277344 62.0625 12.59375 62.035156 11.910156 C 62.035156 11.898438 62.035156 11.886719 62.035156 11.875 C 62.347656 11.8125 62.644531 11.707031 62.921875 11.558594 C 64.371094 10.78125 64.785156 8.847656 64.039062 7.441406 C 63.246094 5.960938 61.25 5.285156 59.84375 6.335938 C 59.835938 6.335938 59.832031 6.347656 59.824219 6.351562 C 59.527344 6.558594 59.277344 6.808594 59.066406 7.101562 C 58.855469 7.394531 58.695312 7.710938 58.59375 8.058594 C 58.492188 8.402344 58.449219 8.757812 58.464844 9.117188 C 58.480469 9.476562 58.554688 9.824219 58.6875 10.15625 C 58.871094 10.609375 59.152344 10.988281 59.53125 11.292969 C 59.90625 11.601562 60.335938 11.796875 60.816406 11.886719 C 60.816406 11.894531 60.816406 11.902344 60.816406 11.914062 C 60.84375 12.597656 60.835938 13.28125 60.785156 13.964844 C 55.488281 14.15625 50.265625 15.734375 45.953125 18.875 C 45.035156 19.542969 44.164062 20.269531 43.339844 21.054688 C 43.308594 21.078125 43.277344 21.105469 43.25 21.136719 C 41.519531 22.8125 40.035156 24.78125 39.179688 27 C 38.90625 26.832031 38.605469 26.734375 38.285156 26.703125 C 37.785156 26.65625 37.3125 26.75 36.871094 26.984375 C 36.6875 26.167969 36.457031 25.359375 36.242188 24.550781 C 36.257812 24.539062 36.273438 24.53125 36.289062 24.519531 C 37.320312 23.75 37.253906 22.167969 36.34375 21.320312 C 36.082031 21.074219 35.78125 20.917969 35.429688 20.84375 C 35.082031 20.769531 34.742188 20.789062 34.40625 20.90625 C 34.335938 20.914062 34.273438 20.933594 34.210938 20.960938 C 33.917969 21.089844 33.667969 21.277344 33.464844 21.527344 C 33.390625 21.609375 33.320312 21.695312 33.257812 21.789062 C 33.222656 21.839844 33.199219 21.898438 33.179688 21.957031 C 32.878906 22.5625 32.855469 23.292969 33.285156 23.878906 C 33.714844 24.464844 34.386719 24.871094 35.074219 24.902344 C 35.332031 25.863281 35.613281 26.824219 35.796875 27.800781 C 35.675781 27.925781 35.558594 28.054688 35.453125 28.191406 C 33.925781 30.152344 33.367188 32.863281 33.292969 35.289062 C 33.242188 36.855469 33.429688 38.394531 33.84375 39.902344 C 34.195312 41.164062 34.777344 43.234375 35.898438 44.011719 C 36.765625 44.617188 37.808594 44.667969 38.738281 44.28125 C 39.335938 47.0625 40.765625 49.730469 42.453125 51.976562 C 43.730469 53.695312 45.21875 55.203125 46.921875 56.503906 C 48.625 57.804688 50.472656 58.847656 52.46875 59.632812 C 55.316406 60.742188 58.363281 61.214844 61.410156 61.234375 C 61.429688 61.234375 61.441406 61.234375 61.457031 61.234375 C 61.472656 61.234375 61.488281 61.234375 61.503906 61.234375 C 66.550781 61.203125 71.53125 59.824219 75.613281 56.804688 C 78.769531 54.472656 81.183594 51.539062 82.859375 47.996094 C 83.433594 46.816406 83.871094 45.585938 84.171875 44.308594 C 84.8125 44.558594 85.589844 44.605469 86.113281 44.457031 C 87.613281 44.035156 88.175781 42.4375 88.679688 41.113281 C 89.242188 39.609375 89.554688 38.054688 89.617188 36.453125 C 89.734375 33.871094 89.273438 31.011719 87.882812 28.789062 C 87.660156 28.433594 87.410156 28.101562 87.125 27.796875 C 87.308594 26.820312 87.589844 25.859375 87.847656 24.902344 C 88.523438 24.867188 89.1875 24.472656 89.625 23.875 Z M 88.113281 22.019531 C 88.515625 22.207031 88.886719 22.601562 88.679688 23.089844 C 88.503906 23.503906 87.902344 23.824219 87.480469 23.621094 C 86.570312 23.179688 87.359375 21.839844 88.113281 22.019531 Z M 59.964844 9.992188 C 59.488281 9.246094 59.648438 8.050781 60.324219 7.460938 C 60.371094 7.441406 60.414062 7.417969 60.457031 7.386719 C 62.292969 6.015625 64.277344 9.128906 62.515625 10.375 C 61.730469 10.933594 60.5 10.824219 59.964844 9.992188 Z M 34.253906 23.148438 C 34.003906 22.65625 34.375 22.214844 34.800781 22.019531 C 35.554688 21.839844 36.335938 23.183594 35.429688 23.621094 C 35.027344 23.816406 34.453125 23.535156 34.253906 23.148438 Z M 35.53125 41.085938 C 34.984375 39.71875 34.652344 38.304688 34.539062 36.839844 C 34.429688 35.375 34.539062 33.925781 34.875 32.496094 C 35.121094 31.445312 35.476562 30.40625 36.039062 29.480469 C 36.25 29.117188 36.503906 28.792969 36.800781 28.503906 C 36.855469 28.453125 36.910156 28.410156 36.96875 28.371094 C 36.730469 29.273438 36.636719 31.664062 36.902344 31.699219 C 37.230469 31.742188 38.035156 29 38.355469 27.96875 C 38.609375 27.972656 38.796875 28.085938 38.921875 28.308594 C 38.9375 28.5 38.957031 28.691406 38.976562 28.882812 C 38.964844 28.980469 38.972656 29.070312 39.003906 29.164062 C 39.28125 32.042969 39.363281 34.929688 39.25 37.824219 C 39.214844 38.621094 39.160156 39.414062 39.078125 40.207031 C 39.027344 40.699219 38.96875 41.1875 38.890625 41.671875 C 38.84375 41.980469 38.851562 42.589844 38.679688 42.851562 C 38.539062 43.0625 38.191406 43.207031 37.84375 43.28125 C 37.472656 41.867188 36.941406 38.386719 36.636719 38.386719 C 36.332031 38.386719 36.207031 41.585938 36.488281 42.863281 C 36.027344 42.378906 35.753906 41.621094 35.53125 41.085938 Z M 70.003906 58.503906 C 67.28125 59.546875 64.40625 60 61.503906 60.015625 C 61.484375 60.015625 61.472656 60.015625 61.457031 60.015625 C 61.441406 60.015625 61.425781 60.015625 61.410156 60.015625 C 56.5625 59.988281 51.832031 58.65625 47.917969 55.753906 C 44.917969 53.511719 42.636719 50.695312 41.066406 47.300781 C 40.472656 46.050781 40.050781 44.742188 39.800781 43.378906 C 40.230469 42.511719 40.191406 41.152344 40.277344 40.371094 C 40.722656 36.269531 40.539062 32.097656 40.113281 28 C 40.695312 26.171875 41.78125 24.503906 43.09375 23.03125 C 43.035156 28.035156 43.902344 38.589844 44.199219 38.605469 C 44.515625 38.621094 44.226562 27.1875 44.332031 21.769531 C 46.292969 19.9375 48.5 18.480469 50.953125 17.394531 C 52.195312 20.964844 55.414062 28.457031 55.703125 28.386719 C 55.996094 28.320312 53.335938 20.539062 52.078125 16.925781 C 55.097656 15.78125 58.226562 15.195312 61.457031 15.164062 C 64.6875 15.195312 67.8125 15.785156 70.832031 16.933594 C 69.574219 20.546875 66.890625 28.308594 67.183594 28.390625 C 67.480469 28.472656 70.71875 20.96875 71.953125 17.402344 C 74.410156 18.488281 76.617188 19.945312 78.574219 21.773438 C 78.679688 27.199219 78.335938 38.59375 78.628906 38.609375 C 78.945312 38.632812 79.871094 28.039062 79.816406 23.039062 C 81.125 24.507812 82.210938 26.179688 82.796875 28.007812 C 82.414062 31.660156 82.242188 35.359375 82.507812 39.027344 C 82.566406 39.804688 82.644531 40.582031 82.746094 41.355469 C 82.832031 41.972656 82.84375 42.765625 83.105469 43.367188 C 81.992188 50.128906 76.242188 56.117188 70.003906 58.503906 Z M 88.039062 32.496094 C 88.371094 33.925781 88.484375 35.375 88.371094 36.839844 C 88.257812 38.304688 87.925781 39.71875 87.378906 41.085938 C 87.160156 41.613281 86.882812 42.371094 86.429688 42.855469 C 86.710938 41.578125 86.539062 38.359375 86.210938 38.390625 C 85.929688 38.417969 85.445312 41.867188 85.074219 43.28125 C 84.714844 43.214844 84.371094 43.0625 84.234375 42.851562 C 83.875 42.308594 83.917969 41 83.851562 40.375 C 83.761719 39.527344 83.699219 38.675781 83.660156 37.824219 C 83.546875 34.929688 83.628906 32.039062 83.90625 29.15625 C 83.933594 29.066406 83.945312 28.972656 83.933594 28.878906 C 83.949219 28.6875 83.96875 28.496094 83.988281 28.300781 C 84.113281 28.078125 84.300781 27.964844 84.558594 27.964844 C 84.875 28.996094 85.679688 31.738281 86.007812 31.695312 C 86.277344 31.664062 86.175781 29.273438 85.941406 28.367188 C 86 28.40625 86.058594 28.449219 86.109375 28.5 C 86.410156 28.789062 86.664062 29.117188 86.871094 29.476562 C 87.433594 30.40625 87.792969 31.445312 88.039062 32.496094 Z M 88.039062 32.496094 " fill-opacity="1" fill-rule="nonzero"/></g><path fill="#263151" d="M 76.351562 12.523438 C 75.636719 12.203125 75.019531 13.253906 75.734375 13.574219 C 76.707031 14.011719 77.71875 14.40625 78.628906 14.964844 C 79.542969 15.519531 80.335938 16.273438 81.113281 17.011719 C 81.683594 17.554688 82.546875 16.695312 81.976562 16.152344 C 81.203125 15.417969 80.425781 14.679688 79.53125 14.089844 C 78.546875 13.441406 77.425781 13.007812 76.351562 12.523438 Z M 76.351562 12.523438 " fill-opacity="1" fill-rule="nonzero"/><path fill="#263151" d="M 75.527344 8.011719 C 77.570312 8.535156 79.480469 9.371094 81.246094 10.519531 C 83.015625 11.671875 84.554688 13.074219 85.859375 14.730469 C 86.34375 15.34375 87.203125 14.476562 86.722656 13.867188 C 85.34375 12.136719 83.726562 10.667969 81.863281 9.464844 C 80.003906 8.257812 78 7.382812 75.851562 6.839844 C 75.089844 6.644531 74.765625 7.816406 75.527344 8.011719 Z M 75.527344 8.011719 " fill-opacity="1" fill-rule="nonzero"/><path fill="#9dfff2" d="M 54.675781 37.910156 C 54.675781 38.238281 54.65625 38.566406 54.613281 38.890625 C 54.570312 39.214844 54.507812 39.527344 54.421875 39.832031 C 54.339844 40.136719 54.234375 40.425781 54.113281 40.703125 C 53.992188 40.976562 53.851562 41.230469 53.699219 41.464844 C 53.542969 41.695312 53.375 41.90625 53.191406 42.085938 C 53.007812 42.269531 52.816406 42.425781 52.613281 42.550781 C 52.410156 42.679688 52.203125 42.773438 51.988281 42.839844 C 51.773438 42.902344 51.554688 42.933594 51.335938 42.933594 C 51.117188 42.933594 50.898438 42.902344 50.683594 42.839844 C 50.46875 42.773438 50.257812 42.679688 50.054688 42.550781 C 49.851562 42.425781 49.660156 42.269531 49.476562 42.085938 C 49.296875 41.90625 49.125 41.695312 48.972656 41.464844 C 48.816406 41.230469 48.679688 40.976562 48.554688 40.703125 C 48.433594 40.425781 48.332031 40.136719 48.246094 39.832031 C 48.164062 39.527344 48.101562 39.214844 48.058594 38.890625 C 48.015625 38.566406 47.992188 38.238281 47.992188 37.910156 C 47.992188 37.578125 48.015625 37.253906 48.058594 36.929688 C 48.101562 36.605469 48.164062 36.292969 48.246094 35.988281 C 48.332031 35.679688 48.433594 35.390625 48.554688 35.117188 C 48.679688 34.84375 48.816406 34.589844 48.972656 34.355469 C 49.125 34.121094 49.296875 33.914062 49.476562 33.730469 C 49.660156 33.546875 49.851562 33.394531 50.054688 33.265625 C 50.257812 33.140625 50.46875 33.046875 50.683594 32.980469 C 50.898438 32.917969 51.117188 32.882812 51.335938 32.882812 C 51.554688 32.882812 51.773438 32.917969 51.988281 32.980469 C 52.203125 33.046875 52.410156 33.140625 52.613281 33.265625 C 52.816406 33.394531 53.007812 33.546875 53.191406 33.730469 C 53.375 33.914062 53.542969 34.121094 53.699219 34.355469 C 53.851562 34.589844 53.992188 34.84375 54.113281 35.117188 C 54.234375 35.390625 54.339844 35.679688 54.421875 35.988281 C 54.507812 36.292969 54.570312 36.605469 54.613281 36.929688 C 54.65625 37.253906 54.675781 37.578125 54.675781 37.910156 Z M 54.675781 37.910156 " fill-opacity="1" fill-rule="nonzero"/><path fill="#9dfff2" d="M 74.917969 37.910156 C 74.917969 38.238281 74.898438 38.566406 74.855469 38.890625 C 74.8125 39.214844 74.75 39.527344 74.664062 39.832031 C 74.582031 40.136719 74.476562 40.425781 74.355469 40.703125 C 74.234375 40.976562 74.09375 41.230469 73.941406 41.464844 C 73.785156 41.695312 73.617188 41.90625 73.433594 42.085938 C 73.25 42.269531 73.058594 42.425781 72.855469 42.550781 C 72.652344 42.679688 72.445312 42.773438 72.230469 42.839844 C 72.011719 42.902344 71.796875 42.933594 71.578125 42.933594 C 71.355469 42.933594 71.140625 42.902344 70.925781 42.839844 C 70.710938 42.773438 70.5 42.679688 70.296875 42.550781 C 70.09375 42.425781 69.902344 42.269531 69.71875 42.085938 C 69.539062 41.90625 69.367188 41.695312 69.214844 41.464844 C 69.058594 41.230469 68.917969 40.976562 68.796875 40.703125 C 68.675781 40.425781 68.574219 40.136719 68.488281 39.832031 C 68.40625 39.527344 68.339844 39.214844 68.296875 38.890625 C 68.253906 38.566406 68.234375 38.238281 68.234375 37.910156 C 68.234375 37.578125 68.253906 37.253906 68.296875 36.929688 C 68.339844 36.605469 68.40625 36.292969 68.488281 35.988281 C 68.574219 35.679688 68.675781 35.390625 68.796875 35.117188 C 68.917969 34.84375 69.058594 34.589844 69.214844 34.355469 C 69.367188 34.121094 69.539062 33.914062 69.71875 33.730469 C 69.902344 33.546875 70.09375 33.394531 70.296875 33.265625 C 70.5 33.140625 70.710938 33.046875 70.925781 32.980469 C 71.140625 32.917969 71.355469 32.882812 71.578125 32.882812 C 71.796875 32.882812 72.011719 32.917969 72.230469 32.980469 C 72.445312 33.046875 72.652344 33.140625 72.855469 33.265625 C 73.058594 33.394531 73.25 33.546875 73.433594 33.730469 C 73.617188 33.914062 73.785156 34.121094 73.941406 34.355469 C 74.09375 34.589844 74.234375 34.84375 74.355469 35.117188 C 74.476562 35.390625 74.582031 35.679688 74.664062 35.988281 C 74.75 36.292969 74.8125 36.605469 74.855469 36.929688 C 74.898438 37.253906 74.917969 37.578125 74.917969 37.910156 Z M 74.917969 37.910156 " fill-opacity="1" fill-rule="nonzero"/><path fill="#b3b3b3" d="M 65.796875 17.3125 C 65.210938 17.023438 64.492188 16.957031 63.863281 16.878906 C 62.773438 16.742188 61.675781 16.714844 60.578125 16.785156 C 59.125 16.890625 57.679688 17.089844 56.253906 17.382812 C 56.046875 17.421875 55.773438 17.480469 55.488281 17.542969 C 55.320312 17.582031 55.167969 17.652344 55.03125 17.757812 C 54.894531 17.863281 54.785156 17.992188 54.707031 18.148438 C 54.628906 18.300781 54.585938 18.464844 54.578125 18.636719 C 54.574219 18.808594 54.605469 18.972656 54.671875 19.132812 C 54.726562 19.265625 54.789062 19.398438 54.839844 19.527344 C 55.699219 21.621094 56.25 23.769531 56.730469 26.019531 C 57.101562 27.773438 57.839844 29.742188 59.566406 30.453125 C 59.648438 30.492188 59.714844 30.472656 59.769531 30.394531 C 59.820312 30.320312 59.8125 30.25 59.75 30.183594 C 59.179688 29.597656 58.320312 28.410156 57.734375 25.953125 C 57.488281 24.980469 57.257812 24.003906 57.050781 23.019531 C 57.007812 22.816406 56.636719 21.257812 56.574219 20.890625 C 56.539062 20.507812 56.574219 20.195312 56.753906 20.066406 C 56.839844 20.011719 56.933594 19.972656 57.03125 19.949219 C 57.109375 19.933594 57.1875 19.914062 57.265625 19.898438 C 59.292969 19.402344 60.628906 19.394531 62.949219 19.410156 C 63.585938 19.417969 64.261719 19.515625 64.800781 19.117188 C 65.199219 18.828125 65.667969 18.191406 65.929688 17.808594 C 65.992188 17.722656 66.007812 17.632812 65.980469 17.53125 C 65.953125 17.429688 65.894531 17.355469 65.796875 17.3125 Z M 65.796875 17.3125 " fill-opacity="1" fill-rule="nonzero"/><path fill="#b3b3b3" d="M 63.824219 20.898438 C 62.683594 20.707031 61.539062 20.664062 60.386719 20.78125 C 59.839844 20.828125 58.332031 20.9375 57.953125 21.398438 C 57.734375 21.671875 58.113281 23.109375 58.445312 23.6875 C 58.523438 23.839844 58.644531 23.957031 58.800781 24.035156 C 59.101562 24.035156 58.886719 22.964844 60.199219 22.410156 C 60.785156 22.179688 63.011719 22.109375 64.234375 22.222656 C 64.582031 22.257812 65.675781 22.324219 65.488281 21.621094 C 65.378906 21.199219 64.160156 20.957031 63.824219 20.898438 Z M 63.824219 20.898438 " fill-opacity="1" fill-rule="nonzero"/><g fill="#263151" fill-opacity="1"><g transform="translate(1.988831, 46.452042)"><g><path d="M 1.171875 0 L 1.171875 -12.34375 L 9.234375 -12.34375 L 11.796875 -9.78125 L 11.796875 -2.5625 L 9.234375 0 Z M 4.3125 -2.375 L 7.875 -2.375 L 8.765625 -3.265625 L 8.765625 -9.078125 L 7.875 -9.96875 L 4.3125 -9.96875 Z M 4.3125 -2.375 "/></g></g></g><g fill="#263151" fill-opacity="1"><g transform="translate(16.129766, 46.452042)"><g><path d="M 2.703125 0 L 0.84375 -1.859375 L 0.84375 -10.484375 L 2.703125 -12.34375 L 9.9375 -12.34375 L 11.796875 -10.484375 L 11.796875 -1.859375 L 9.9375 0 Z M 4.578125 -2.375 L 8.09375 -2.375 L 8.671875 -2.96875 L 8.671875 -9.375 L 8.0625 -9.96875 L 4.578125 -9.96875 L 3.96875 -9.375 L 3.96875 -2.96875 Z M 4.578125 -2.375 "/></g></g></g><g fill="#263151" fill-opacity="1"><g transform="translate(93.852874, 46.452042)"><g><path d="M 1.171875 0 L 1.171875 -12.34375 L 9.234375 -12.34375 L 11.796875 -9.78125 L 11.796875 -2.5625 L 9.234375 0 Z M 4.3125 -2.375 L 7.875 -2.375 L 8.765625 -3.265625 L 8.765625 -9.078125 L 7.875 -9.96875 L 4.3125 -9.96875 Z M 4.3125 -2.375 "/></g></g></g><g fill="#263151" fill-opacity="1"><g transform="translate(107.993809, 46.452042)"><g><path d="M 2.703125 0 L 0.84375 -1.859375 L 0.84375 -10.484375 L 2.703125 -12.34375 L 9.9375 -12.34375 L 11.796875 -10.484375 L 11.796875 -1.859375 L 9.9375 0 Z M 4.578125 -2.375 L 8.09375 -2.375 L 8.671875 -2.96875 L 8.671875 -9.375 L 8.0625 -9.96875 L 4.578125 -9.96875 L 3.96875 -9.375 L 3.96875 -2.96875 Z M 4.578125 -2.375 "/></g></g></g><g fill="#263151" fill-opacity="1"><g transform="translate(122.302285, 46.452042)"><g><path d="M 1.171875 0 L 1.171875 -12.34375 L 4.59375 -12.34375 L 8.75 -4.9375 L 8.75 -12.34375 L 11.65625 -12.34375 L 11.65625 0 L 8.75 0 L 4.6875 -7.234375 L 4.09375 -7.234375 L 4.09375 0 Z M 1.171875 0 "/></g></g></g><g fill="#263151" fill-opacity="1"><g transform="translate(136.811809, 46.452042)"><g><path d="M 1.171875 0 L 1.171875 -12.34375 L 10.546875 -12.34375 L 10.546875 -9.796875 L 4.3125 -9.796875 L 4.3125 -7.515625 L 9.9375 -7.515625 L 9.9375 -5.15625 L 4.3125 -5.15625 L 4.3125 -2.546875 L 10.546875 -2.546875 L 10.546875 0 Z M 1.171875 0 "/></g></g></g></svg>